<svg xmlns="http://www.w3.org/2000/svg" width="34" height="34.103" viewBox="0 0 34 34.103"><defs><style>.a{fill:#2e58f7;}.b{fill:#fff;fill-rule:evenodd;}</style></defs><g transform="translate(-19 -26)"><path class="a" d="M17,0A17.051,17.051,0,1,1,0,17.051,17.026,17.026,0,0,1,17,0Z" transform="translate(19 26)"/><g transform="translate(-136.193 -77.842)"><path class="b" d="M176.93,108.948a.657.657,0,0,0,.148-.86s-.179-.431-.858-.153a24.4,24.4,0,0,0-8.789,6.031,19.534,19.534,0,0,0-4.143,7.1.576.576,0,0,0,.219.825c.22.128.592-.086.816-.254a9.058,9.058,0,0,1,3.278-1.674,11.842,11.842,0,0,1,2.743-.374,2.151,2.151,0,0,0,1.466-.435,2.377,2.377,0,0,0,.637-1.266,22.669,22.669,0,0,1,1.563-4.443,17.658,17.658,0,0,1,2.922-4.5"/><path class="b" d="M172.133,141.542a.683.683,0,0,0-.074.841.615.615,0,0,0,.638.132,23.8,23.8,0,0,0,9.215-6.264A20.243,20.243,0,0,0,186,129.206c.187-.583-.126-.746-.132-.748s-.3-.3-.782.064a9.785,9.785,0,0,1-3.348,1.675,10.3,10.3,0,0,1-2.445.438,2.883,2.883,0,0,0-1.5.335,1.864,1.864,0,0,0-.851,1.251,24.914,24.914,0,0,1-1.675,4.469,23.343,23.343,0,0,1-3.142,4.851" transform="translate(-3.871 -9.065)"/></g></g></svg>